# xmcd
#
# Track frame offsets: 
#        150
#        19843
#        42856
#        60352
#        85586
#        104789
#        126154
#        153977
#        161480
#        177740
#        195903
#        219529
#        240590
#        263926
#        296963
#        319112
#
# Disc length: 4540 seconds
#
# Revision: 2
# Processed by: cddbd v1.5.2PL0 Copyright (c) Steve Scherf et al.
# Submitted via: ExactAudioCopy v0.99pb4
#
DISCID=e211ba10
DTITLE=Various Artist - Nu-Jazz Conference @Tokyo New New Composite by New Ge
DTITLE=neration
DYEAR=2008
DGENRE=Jazz
TTITLE0=JABBERLOOP - MISSING MY BIRD
TTITLE1=Shade and Blu-Swing - FABULOUS
TTITLE2=Kimono My House - LUDAS
TTITLE3=Akihiro Kasuga - WALK ALONG
TTITLE4=Tsuyoshi Furuhashi - HOMARGE II
TTITLE5=Shade and Blu-Swing - MIDNIGHT LOUNGE (Yusuke at eskym jazz remi
TTITLE5=x)
TTITLE6=JABBERLOOP - IN:GROOVE
TTITLE7=Tough and Cool - INVA NA NANTHY -INTORODUCTION-
TTITLE8=Tough and Cool - INVA NA NANTHY
TTITLE9=KIMONO MY HOUSE - MANIA
TTITLE10=Akihiro Kasuga - BABY TALK
TTITLE11=JABBERLOOP - ATMOSPHERE ENTRY
TTITLE12=Akihiro Kasuga - GRAVITY
TTITLE13=Tough and Cool - GOBLIN DANCE
TTITLE14=Shade and Blu-Swing - REALIZE (Just Will remix)
TTITLE15=KIMONO MY HOUSE - SHINING
EXTD=YEAR: 2008
EXTT0=
EXTT1=
EXTT2=
EXTT3=
EXTT4=
EXTT5=
EXTT6=
EXTT7=
EXTT8=
EXTT9=
EXTT10=
EXTT11=
EXTT12=
EXTT13=
EXTT14=
EXTT15=
PLAYORDER=
